# xmcd
#
# Track frame offsets:
#	150
#	15870
#	31460
#	43377
#	55282
#	73547
#	86617
#	98860
#	114972
#	130842
#	148730
#	165527
#	180592
#	195667
#	288090
#
# Disc length: 4121 seconds
#
# Revision: 1
# Processed by: cddbd v1.5.2PL0 Copyright (c) Steve Scherf et al.
# Submitted via: audiograbber 1.83.01
#
DISCID=ca10170f
DTITLE=Circuit Rider - CR Volume 25 Circuit Rider
DYEAR=1999
DGENRE=Gospel
TTITLE0=Bottle For A Bible - Steve White
TTITLE1=He Is Faithful - Ray Mahaffey And Safely Anchored
TTITLE2=When I Get My Wings - W.c. Taylor
TTITLE3=Light At The End Of The Darkness - Morgan and Morgan
TTITLE4=Mamma´s Dobro - Carl Witherington
TTITLE5=Daddy Finally Made It To Church - Jim Fullen
TTITLE6=The Pair On The Ground - Joe Price
TTITLE7=Mending Fences - Lawton Williams
TTITLE8=He´ll See Jesus - Bill Townsend
TTITLE9=Let The Holy Ghost And Fire Fall - Melba Pettigrew
TTITLE10=Missing Person - Billy Cranford
TTITLE11=He Keeps Me Singing - Gene Crain
TTITLE12=Jesus Loves Outlows - Butler Brothers
TTITLE13=New Age Movements Exposed - David J. Smith
TTITLE14=Profecia - Marvell
EXTD=
EXTT0=
EXTT1=
EXTT2=
EXTT3=
EXTT4=
EXTT5=
EXTT6=
EXTT7=
EXTT8=
EXTT9=
EXTT10=
EXTT11=
EXTT12=
EXTT13=
EXTT14=
PLAYORDER=
